<svg width="30" height="30" viewBox="0 0 30 30" version="1.1" xmlns="http://www.w3.org/2000/svg" xmlns:xlink="http://www.w3.org/1999/xlink">
<title>Group 5</title>
<desc>Created using Figma</desc>
<g id="Canvas" transform="translate(-5193 -8151)">
<g id="Group 5">
<g id="Vector">
<use xlink:href="#path0_fill" transform="translate(5209.31 8160.22)" fill="#005826"/>
</g>
<g id="Vector">
<use xlink:href="#path1_fill" transform="translate(5193 8160.22)" fill="#72BF44"/>
</g>
<g id="Vector">
<use xlink:href="#path2_fill" transform="translate(5202.4 8167.38)" fill="#00A651"/>
</g>
<g id="Vector">
<use xlink:href="#path3_fill" transform="translate(5202.26 8151)" fill="#B2D235"/>
</g>
</g>
</g>
<defs>
<path id="path0_fill" d="M 8.15521 2.47708C 9.95212 2.47708 11.3344 3.85324 11.3344 5.77986C 11.3344 7.56886 9.95212 9.08263 8.15521 9.08263C 7.18764 9.08263 6.3583 8.8074 5.66718 7.98171L 3.4556 5.77986L 5.66718 3.57801C 6.49652 2.75231 7.18764 2.47708 8.15521 2.47708ZM 8.15521 -2.62481e-07C 6.22008 -2.62481e-07 4.97606 0.825694 3.87027 1.789L 2.63641e-07 5.64224L 3.87027 9.49548C 4.97606 10.5964 6.22008 11.2845 8.15521 11.2845C 11.3344 11.2845 13.6842 8.66978 13.6842 5.50462C 13.8224 2.6147 11.3344 -2.62481e-07 8.15521 -2.62481e-07Z"/>
<path id="path1_fill" d="M 5.52896 2.47708C 6.49652 2.47708 7.32587 2.75231 8.01699 3.57801L 10.2286 5.77985L 8.01699 7.9817C 7.32587 8.66978 6.63475 9.08263 5.52896 9.08263C 3.73205 9.08263 2.34981 7.70647 2.34981 5.77985C 2.48803 3.85324 3.87027 2.47708 5.52896 2.47708ZM 5.52896 -2.62481e-07C 2.34981 -2.62481e-07 0 2.6147 0 5.77985C 0 8.94501 2.48803 11.4221 5.52896 11.4221C 7.46409 11.4221 8.70811 10.5964 9.8139 9.63309L 13.6842 5.77985L 9.8139 1.789C 8.84633 0.825693 7.46409 -2.62481e-07 5.52896 -2.62481e-07Z"/>
<path id="path2_fill" d="M 5.66718 3.30277L 7.87876 5.50462C 8.70811 6.33032 8.98455 7.01839 8.98455 8.11932C 8.98455 9.90832 7.60231 11.2845 5.66718 11.2845C 3.73204 11.2845 2.34981 9.90832 2.34981 8.11932C 2.34981 7.15601 2.62625 6.33032 3.4556 5.64224L 5.66718 3.30277ZM 5.66718 -5.24962e-07C 5.39073 -5.24962e-07 1.79691 3.85324 1.79691 3.85324C 0.829344 4.95416 2.63641e-07 6.1927 2.63641e-07 8.11932C 2.63641e-07 11.2845 2.62625 13.6239 5.8054 13.6239C 8.98455 13.6239 11.6108 11.1469 11.6108 8.11932C 11.6108 6.1927 10.7815 4.95416 9.8139 3.85324L 5.66718 -5.24962e-07Z"/>
<path id="path3_fill" d="M 5.8054 2.47708C 7.60231 2.47708 9.12278 3.85324 9.12278 5.64224C 9.12278 6.60555 8.84633 7.43124 8.01699 8.11932L 5.8054 10.3212L 3.59382 8.11932C 2.76448 7.29363 2.48803 6.60555 2.48803 5.50462C 2.48803 3.85324 3.87027 2.47708 5.8054 2.47708ZM 5.8054 0C 2.62625 0 -2.63641e-07 2.47708 -2.63641e-07 5.50462C -2.63641e-07 7.43124 0.829343 8.66978 1.79691 9.77071L 5.66718 13.6239L 9.53745 9.77071C 10.7815 8.8074 11.4726 7.43124 11.4726 5.50462C 11.4726 2.47708 8.98455 0 5.8054 0Z"/>
</defs>
</svg>
